<svg version="1.1" xmlns="http://www.w3.org/2000/svg" viewBox="0 0 1046 674" width="1046" height="674" class="excalidraw-svg"><!-- svg-source:excalidraw --><metadata></metadata><defs><style class="style-fonts">
      </style></defs><rect x="0" y="0" width="1046" height="674" fill="#ffffff"></rect><g stroke-linecap="round" transform="translate(10 10) rotate(0 513 327)"><path d="M32 0 C247.27 0, 462.55 0, 994 0 C1015.33 0, 1026 10.67, 1026 32 C1026 205.27, 1026 378.54, 1026 622 C1026 643.33, 1015.33 654, 994 654 C782.17 654, 570.35 654, 32 654 C10.67 654, 0 643.33, 0 622 C0 461.88, 0 301.75, 0 32 C0 10.67, 10.67 0, 32 0" stroke="none" stroke-width="0" fill="#1e1e1e"></path><path d="M32 0 C381.14 0, 730.29 0, 994 0 M32 0 C249.82 0, 467.63 0, 994 0 M994 0 C1015.33 0, 1026 10.67, 1026 32 M994 0 C1015.33 0, 1026 10.67, 1026 32 M1026 32 C1026 189.14, 1026 346.29, 1026 622 M1026 32 C1026 212.67, 1026 393.34, 1026 622 M1026 622 C1026 643.33, 1015.33 654, 994 654 M1026 622 C1026 643.33, 1015.33 654, 994 654 M994 654 C665.94 654, 337.89 654, 32 654 M994 654 C800.72 654, 607.43 654, 32 654 M32 654 C10.67 654, 0 643.33, 0 622 M32 654 C10.67 654, 0 643.33, 0 622 M0 622 C0 411.66, 0 201.32, 0 32 M0 622 C0 417.37, 0 212.74, 0 32 M0 32 C0 10.67, 10.67 0, 32 0 M0 32 C0 10.67, 10.67 0, 32 0" stroke="#1e1e1e" stroke-width="4" fill="none"></path></g><g stroke-linecap="round" transform="translate(41.923299565846605 23.654945054945053) rotate(0 485.5311143270622 296.0967032967033)"><path d="M32 0 C312.57 0, 593.14 0, 939.06 0 C960.4 0, 971.06 10.67, 971.06 32 C971.06 171.07, 971.06 310.13, 971.06 560.19 C971.06 581.53, 960.4 592.19, 939.06 592.19 C621.14 592.19, 303.21 592.19, 32 592.19 C10.67 592.19, 0 581.53, 0 560.19 C0 441.42, 0 322.65, 0 32 C0 10.67, 10.67 0, 32 0" stroke="none" stroke-width="0" fill="#ffffff"></path><path d="M32 0 C380.32 0, 728.65 0, 939.06 0 M32 0 C235.15 0, 438.29 0, 939.06 0 M939.06 0 C960.4 0, 971.06 10.67, 971.06 32 M939.06 0 C960.4 0, 971.06 10.67, 971.06 32 M971.06 32 C971.06 210.81, 971.06 389.63, 971.06 560.19 M971.06 32 C971.06 160.27, 971.06 288.53, 971.06 560.19 M971.06 560.19 C971.06 581.53, 960.4 592.19, 939.06 592.19 M971.06 560.19 C971.06 581.53, 960.4 592.19, 939.06 592.19 M939.06 592.19 C729.45 592.19, 519.83 592.19, 32 592.19 M939.06 592.19 C737.02 592.19, 534.97 592.19, 32 592.19 M32 592.19 C10.67 592.19, 0 581.53, 0 560.19 M32 592.19 C10.67 592.19, 0 581.53, 0 560.19 M0 560.19 C0 400.5, 0 240.81, 0 32 M0 560.19 C0 353.47, 0 146.74, 0 32 M0 32 C0 10.67, 10.67 0, 32 0 M0 32 C0 10.67, 10.67 0, 32 0" stroke="#1e1e1e" stroke-width="4" fill="none"></path></g><g stroke-linecap="round" transform="translate(547.4992764109986 630.9406593406593) rotate(0 11.136034732272066 12.217582417582435)"><path d="M22.27 12.22 C22.27 12.92, 22.21 13.64, 22.1 14.34 C21.99 15.04, 21.82 15.73, 21.6 16.4 C21.38 17.06, 21.1 17.71, 20.78 18.33 C20.46 18.94, 20.08 19.53, 19.67 20.07 C19.25 20.61, 18.79 21.12, 18.29 21.58 C17.8 22.03, 17.26 22.44, 16.7 22.8 C16.15 23.15, 15.55 23.46, 14.94 23.7 C14.34 23.94, 13.7 24.13, 13.07 24.25 C12.43 24.37, 11.78 24.44, 11.14 24.44 C10.49 24.44, 9.84 24.37, 9.2 24.25 C8.57 24.13, 7.93 23.94, 7.33 23.7 C6.72 23.46, 6.13 23.15, 5.57 22.8 C5.01 22.44, 4.47 22.03, 3.98 21.58 C3.48 21.12, 3.02 20.61, 2.61 20.07 C2.19 19.53, 1.81 18.94, 1.49 18.33 C1.17 17.71, 0.89 17.06, 0.67 16.4 C0.45 15.73, 0.28 15.04, 0.17 14.34 C0.06 13.64, 0 12.92, 0 12.22 C0 11.51, 0.06 10.79, 0.17 10.1 C0.28 9.4, 0.45 8.7, 0.67 8.04 C0.89 7.37, 1.17 6.72, 1.49 6.11 C1.81 5.5, 2.19 4.91, 2.61 4.36 C3.02 3.82, 3.48 3.31, 3.98 2.86 C4.47 2.4, 5.01 1.99, 5.57 1.64 C6.13 1.28, 6.72 0.98, 7.33 0.74 C7.93 0.49, 8.57 0.31, 9.2 0.19 C9.84 0.06, 10.49 0, 11.14 0 C11.78 0, 12.43 0.06, 13.07 0.19 C13.7 0.31, 14.34 0.49, 14.94 0.74 C15.55 0.98, 16.15 1.28, 16.7 1.64 C17.26 1.99, 17.8 2.4, 18.29 2.86 C18.79 3.31, 19.25 3.82, 19.67 4.36 C20.08 4.91, 20.46 5.5, 20.78 6.11 C21.1 6.72, 21.38 7.37, 21.6 8.04 C21.82 8.7, 21.99 9.4, 22.1 10.1 C22.21 10.79, 22.24 11.86, 22.27 12.22 C22.3 12.57, 22.3 11.86, 22.27 12.22" stroke="#ffffff" stroke-width="4" fill="none"></path></g><g stroke-linecap="round" transform="translate(41.923299565846605 319.032967032967) rotate(0 96.5123010130246 71.86813186813185)"><path d="M0 0 L193.02 0 L193.02 143.74 L0 143.74" stroke="none" stroke-width="0" fill="#5c5c5c"></path><path d="M0 0 C55.55 0, 111.1 0, 193.02 0 M0 0 C66.85 0, 133.7 0, 193.02 0 M193.02 0 C193.02 31.34, 193.02 62.68, 193.02 143.74 M193.02 0 C193.02 38.44, 193.02 76.89, 193.02 143.74 M193.02 143.74 C122.61 143.74, 52.19 143.74, 0 143.74 M193.02 143.74 C147.61 143.74, 102.2 143.74, 0 143.74 M0 143.74 C0 87.2, 0 30.67, 0 0 M0 143.74 C0 102.66, 0 61.59, 0 0" stroke="#1e1e1e" stroke-width="4" fill="none"></path></g><g stroke-linecap="round" transform="translate(235.69030390738067 319.032967032967) rotate(0 96.5123010130246 71.86813186813185)"><path d="M0 0 L193.02 0 L193.02 143.74 L0 143.74" stroke="none" stroke-width="0" fill="#e6e6e6"></path><path d="M0 0 C75.44 0, 150.89 0, 193.02 0 M0 0 C43.16 0, 86.32 0, 193.02 0 M193.02 0 C193.02 40.15, 193.02 80.3, 193.02 143.74 M193.02 0 C193.02 47.07, 193.02 94.14, 193.02 143.74 M193.02 143.74 C146.05 143.74, 99.08 143.74, 0 143.74 M193.02 143.74 C118.71 143.74, 44.39 143.74, 0 143.74 M0 143.74 C0 99.92, 0 56.1, 0 0 M0 143.74 C0 89.22, 0 34.7, 0 0" stroke="#1e1e1e" stroke-width="4" fill="none"></path></g><g stroke-linecap="round" transform="translate(430.1997105643994 319.032967032967) rotate(0 96.5123010130246 71.86813186813185)"><path d="M0 0 L193.02 0 L193.02 143.74 L0 143.74" stroke="none" stroke-width="0" fill="#d1d1d1"></path><path d="M0 0 C71.91 0, 143.83 0, 193.02 0 M0 0 C46.4 0, 92.8 0, 193.02 0 M193.02 0 C193.02 42.88, 193.02 85.75, 193.02 143.74 M193.02 0 C193.02 35.11, 193.02 70.23, 193.02 143.74 M193.02 143.74 C118.7 143.74, 44.38 143.74, 0 143.74 M193.02 143.74 C138.43 143.74, 83.83 143.74, 0 143.74 M0 143.74 C0 112.93, 0 82.12, 0 0 M0 143.74 C0 113.1, 0 82.46, 0 0" stroke="#1e1e1e" stroke-width="4" fill="none"></path></g><g stroke-linecap="round" transform="translate(41.55209840810426 173.85934065934066) rotate(0 96.5123010130246 71.86813186813185)"><path d="M0 0 L193.02 0 L193.02 143.74 L0 143.74" stroke="none" stroke-width="0" fill="#5c5c5c"></path><path d="M0 0 C72.09 0, 144.18 0, 193.02 0 M0 0 C53.79 0, 107.58 0, 193.02 0 M193.02 0 C193.02 53.75, 193.02 107.5, 193.02 143.74 M193.02 0 C193.02 41.73, 193.02 83.46, 193.02 143.74 M193.02 143.74 C125.93 143.74, 58.83 143.74, 0 143.74 M193.02 143.74 C118.56 143.74, 44.1 143.74, 0 143.74 M0 143.74 C0 104.62, 0 65.51, 0 0 M0 143.74 C0 102.27, 0 60.8, 0 0" stroke="#1e1e1e" stroke-width="4" fill="none"></path></g><g stroke-linecap="round" transform="translate(235.3191027496382 173.85934065934066) rotate(0 96.5123010130246 71.86813186813185)"><path d="M0 0 L193.02 0 L193.02 143.74 L0 143.74" stroke="none" stroke-width="0" fill="#1e1e1e"></path><path d="M0 0 C40.79 0, 81.58 0, 193.02 0 M0 0 C51.07 0, 102.15 0, 193.02 0 M193.02 0 C193.02 42.39, 193.02 84.78, 193.02 143.74 M193.02 0 C193.02 56.53, 193.02 113.06, 193.02 143.74 M193.02 143.74 C150.42 143.74, 107.82 143.74, 0 143.74 M193.02 143.74 C127.64 143.74, 62.26 143.74, 0 143.74 M0 143.74 C0 110.5, 0 77.27, 0 0 M0 143.74 C0 97.45, 0 51.16, 0 0" stroke="#000000" stroke-width="4" fill="none"></path></g><g stroke-linecap="round" transform="translate(429.8285094066571 173.85934065934066) rotate(0 96.5123010130246 71.86813186813185)"><path d="M0 0 C52.68 0, 105.36 0, 193.02 0 M0 0 C47.64 0, 95.29 0, 193.02 0 M193.02 0 C193.02 47.68, 193.02 95.36, 193.02 143.74 M193.02 0 C193.02 53.24, 193.02 106.48, 193.02 143.74 M193.02 143.74 C126.79 143.74, 60.55 143.74, 0 143.74 M193.02 143.74 C127.45 143.74, 61.88 143.74, 0 143.74 M0 143.74 C0 94.93, 0 46.12, 0 0 M0 143.74 C0 93.63, 0 43.53, 0 0" stroke="#1e1e1e" stroke-width="4" fill="none"></path></g><g stroke-linecap="round" transform="translate(40.06729377713464 30.123076923076923) rotate(0 96.5123010130246 71.86813186813185)"><path d="M0 0 L193.02 0 L193.02 143.74 L0 143.74" stroke="none" stroke-width="0" fill="#5c5c5c"></path><path d="M0 0 C56.16 0, 112.32 0, 193.02 0 M0 0 C41.02 0, 82.04 0, 193.02 0 M193.02 0 C193.02 54.7, 193.02 109.39, 193.02 143.74 M193.02 0 C193.02 34.71, 193.02 69.42, 193.02 143.74 M193.02 143.74 C120.73 143.74, 48.43 143.74, 0 143.74 M193.02 143.74 C128.81 143.74, 64.6 143.74, 0 143.74 M0 143.74 C0 112.12, 0 80.51, 0 0 M0 143.74 C0 94.26, 0 44.79, 0 0" stroke="#1e1e1e" stroke-width="4" fill="none"></path></g><g stroke-linecap="round" transform="translate(233.83429811866858 30.123076923076923) rotate(0 96.5123010130246 71.86813186813185)"><path d="M0 0 L193.02 0 L193.02 143.74 L0 143.74" stroke="none" stroke-width="0" fill="#5c5c5c"></path><path d="M0 0 C63.26 0, 126.51 0, 193.02 0 M0 0 C64.84 0, 129.68 0, 193.02 0 M193.02 0 C193.02 29.65, 193.02 59.29, 193.02 143.74 M193.02 0 C193.02 47.69, 193.02 95.38, 193.02 143.74 M193.02 143.74 C123.29 143.74, 53.56 143.74, 0 143.74 M193.02 143.74 C142.89 143.74, 92.76 143.74, 0 143.74 M0 143.74 C0 102.44, 0 61.15, 0 0 M0 143.74 C0 105.27, 0 66.81, 0 0" stroke="#1e1e1e" stroke-width="4" fill="none"></path></g><g stroke-linecap="round" transform="translate(428.34370477568746 30.123076923076923) rotate(0 96.5123010130246 71.86813186813185)"><path d="M0 0 L193.02 0 L193.02 143.74 L0 143.74" stroke="none" stroke-width="0" fill="#787878"></path><path d="M0 0 C66.24 0, 132.48 0, 193.02 0 M0 0 C65.11 0, 130.23 0, 193.02 0 M193.02 0 C193.02 41.24, 193.02 82.49, 193.02 143.74 M193.02 0 C193.02 37.4, 193.02 74.81, 193.02 143.74 M193.02 143.74 C130.25 143.74, 67.47 143.74, 0 143.74 M193.02 143.74 C154.16 143.74, 115.3 143.74, 0 143.74 M0 143.74 C0 89.79, 0 35.84, 0 0 M0 143.74 C0 97.24, 0 50.74, 0 0" stroke="#1e1e1e" stroke-width="4" fill="none"></path></g><g stroke-linecap="round" transform="translate(44.521707670043384 465.64395604395605) rotate(0 96.5123010130246 81.21098901098904)"><path d="M0 0 L193.02 0 L193.02 162.42 L0 162.42" stroke="none" stroke-width="0" fill="#5c5c5c"></path><path d="M0 0 C44.69 0, 89.38 0, 193.02 0 M0 0 C45.08 0, 90.15 0, 193.02 0 M193.02 0 C193.02 33.63, 193.02 67.25, 193.02 162.42 M193.02 0 C193.02 36.84, 193.02 73.68, 193.02 162.42 M193.02 162.42 C129.47 162.42, 65.92 162.42, 0 162.42 M193.02 162.42 C131.23 162.42, 69.44 162.42, 0 162.42 M0 162.42 C0 129.34, 0 96.25, 0 0 M0 162.42 C0 101.43, 0 40.43, 0 0" stroke="#1e1e1e" stroke-width="4" fill="none"></path></g><g stroke-linecap="round" transform="translate(236.80390738060782 465.64395604395605) rotate(0 96.5123010130246 77.61758241758238)"><path d="M0 0 L193.02 0 L193.02 155.24 L0 155.24" stroke="none" stroke-width="0" fill="#e6e6e6"></path><path d="M0 0 C52.55 0, 105.1 0, 193.02 0 M0 0 C73.64 0, 147.28 0, 193.02 0 M193.02 0 C193.02 46.71, 193.02 93.43, 193.02 155.24 M193.02 0 C193.02 37.93, 193.02 75.86, 193.02 155.24 M193.02 155.24 C126.25 155.24, 59.47 155.24, 0 155.24 M193.02 155.24 C151.17 155.24, 109.32 155.24, 0 155.24 M0 155.24 C0 110.91, 0 66.59, 0 0 M0 155.24 C0 104.64, 0 54.05, 0 0" stroke="#1e1e1e" stroke-width="4" fill="none"></path></g><g stroke-linecap="round" transform="translate(432.7981186685962 464.2065934065934) rotate(0 96.5123010130246 76.1802197802198)"><path d="M0 0 L193.02 0 L193.02 152.36 L0 152.36" stroke="none" stroke-width="0" fill="#1e1e1e"></path><path d="M0 0 C74.94 0, 149.87 0, 193.02 0 M0 0 C42.91 0, 85.81 0, 193.02 0 M193.02 0 C193.02 36.93, 193.02 73.86, 193.02 152.36 M193.02 0 C193.02 42.83, 193.02 85.67, 193.02 152.36 M193.02 152.36 C134.41 152.36, 75.79 152.36, 0 152.36 M193.02 152.36 C154.28 152.36, 115.54 152.36, 0 152.36 M0 152.36 C0 91.74, 0 31.11, 0 0 M0 152.36 C0 107, 0 61.63, 0 0" stroke="#1e1e1e" stroke-width="4" fill="none"></path></g><g stroke-linecap="round" transform="translate(624.7091172214182 464.2065934065934) rotate(0 96.5123010130246 76.1802197802198)"><path d="M0 0 L193.02 0 L193.02 152.36 L0 152.36" stroke="none" stroke-width="0" fill="#d1d1d1"></path><path d="M0 0 C43.15 0, 86.3 0, 193.02 0 M0 0 C70.49 0, 140.99 0, 193.02 0 M193.02 0 C193.02 51.86, 193.02 103.72, 193.02 152.36 M193.02 0 C193.02 52.09, 193.02 104.19, 193.02 152.36 M193.02 152.36 C139.41 152.36, 85.8 152.36, 0 152.36 M193.02 152.36 C121.18 152.36, 49.33 152.36, 0 152.36 M0 152.36 C0 106.05, 0 59.74, 0 0 M0 152.36 C0 115.94, 0 79.52, 0 0" stroke="#1e1e1e" stroke-width="4" fill="none"></path></g><g stroke-linecap="round" transform="translate(819.218523878437 464.2065934065934) rotate(0 96.5123010130246 76.1802197802198)"><path d="M0 0 L193.02 0 L193.02 152.36 L0 152.36" stroke="none" stroke-width="0" fill="#5c5c5c"></path><path d="M0 0 C43.2 0, 86.41 0, 193.02 0 M0 0 C40.53 0, 81.06 0, 193.02 0 M193.02 0 C193.02 32.93, 193.02 65.87, 193.02 152.36 M193.02 0 C193.02 58.9, 193.02 117.8, 193.02 152.36 M193.02 152.36 C126.1 152.36, 59.17 152.36, 0 152.36 M193.02 152.36 C131.39 152.36, 69.76 152.36, 0 152.36 M0 152.36 C0 97.01, 0 41.66, 0 0 M0 152.36 C0 113.81, 0 75.25, 0 0" stroke="#1e1e1e" stroke-width="4" fill="none"></path></g><g stroke-linecap="round" transform="translate(623.595513748191 319.032967032967) rotate(0 96.5123010130246 71.86813186813185)"><path d="M0 0 L193.02 0 L193.02 143.74 L0 143.74" stroke="none" stroke-width="0" fill="#e9ecef"></path><path d="M0 0 C69.9 0, 139.81 0, 193.02 0 M0 0 C50.32 0, 100.64 0, 193.02 0 M193.02 0 C193.02 46.05, 193.02 92.11, 193.02 143.74 M193.02 0 C193.02 43.94, 193.02 87.88, 193.02 143.74 M193.02 143.74 C131.12 143.74, 69.22 143.74, 0 143.74 M193.02 143.74 C125.71 143.74, 58.39 143.74, 0 143.74 M0 143.74 C0 87.95, 0 32.16, 0 0 M0 143.74 C0 97.76, 0 51.78, 0 0" stroke="#1e1e1e" stroke-width="4" fill="none"></path></g><g stroke-linecap="round" transform="translate(817.362518089725 319.032967032967) rotate(0 96.5123010130246 71.86813186813185)"><path d="M0 0 L193.02 0 L193.02 143.74 L0 143.74" stroke="none" stroke-width="0" fill="#5c5c5c"></path><path d="M0 0 C47.17 0, 94.34 0, 193.02 0 M0 0 C74.12 0, 148.24 0, 193.02 0 M193.02 0 C193.02 30.56, 193.02 61.12, 193.02 143.74 M193.02 0 C193.02 52.32, 193.02 104.64, 193.02 143.74 M193.02 143.74 C117.41 143.74, 41.8 143.74, 0 143.74 M193.02 143.74 C141.88 143.74, 90.74 143.74, 0 143.74 M0 143.74 C0 107.15, 0 70.57, 0 0 M0 143.74 C0 114.02, 0 84.29, 0 0" stroke="#1e1e1e" stroke-width="4" fill="none"></path></g><g stroke-linecap="round" transform="translate(620.6259044862518 175.2967032967033) rotate(0 96.5123010130246 71.86813186813185)"><path d="M0 0 L193.02 0 L193.02 143.74 L0 143.74" stroke="none" stroke-width="0" fill="#000000"></path><path d="M0 0 C59.43 0, 118.85 0, 193.02 0 M0 0 C40.42 0, 80.84 0, 193.02 0 M193.02 0 C193.02 55.55, 193.02 111.1, 193.02 143.74 M193.02 0 C193.02 42.59, 193.02 85.17, 193.02 143.74 M193.02 143.74 C138.84 143.74, 84.66 143.74, 0 143.74 M193.02 143.74 C126.86 143.74, 60.69 143.74, 0 143.74 M0 143.74 C0 88.71, 0 33.68, 0 0 M0 143.74 C0 109.71, 0 75.67, 0 0" stroke="#1e1e1e" stroke-width="4" fill="none"></path></g><g stroke-linecap="round" transform="translate(814.3929088277858 175.2967032967033) rotate(0 96.51230101302458 71.86813186813185)"><path d="M0 0 L193.02 0 L193.02 143.74 L0 143.74" stroke="none" stroke-width="0" fill="#5c5c5c"></path><path d="M0 0 C46.58 0, 93.16 0, 193.02 0 M0 0 C59.47 0, 118.95 0, 193.02 0 M193.02 0 C193.02 29.71, 193.02 59.42, 193.02 143.74 M193.02 0 C193.02 30.44, 193.02 60.88, 193.02 143.74 M193.02 143.74 C134.75 143.74, 76.47 143.74, 0 143.74 M193.02 143.74 C129.78 143.74, 66.53 143.74, 0 143.74 M0 143.74 C0 112.57, 0 81.4, 0 0 M0 143.74 C0 102.99, 0 62.25, 0 0" stroke="#1e1e1e" stroke-width="4" fill="none"></path></g><g stroke-linecap="round" transform="translate(620.6259044862518 30.123076923076923) rotate(0 96.5123010130246 71.86813186813185)"><path d="M0 0 C50.63 0, 101.26 0, 193.02 0 M0 0 C71.89 0, 143.77 0, 193.02 0 M193.02 0 C193.02 31.12, 193.02 62.25, 193.02 143.74 M193.02 0 C193.02 48.41, 193.02 96.82, 193.02 143.74 M193.02 143.74 C140.72 143.74, 88.41 143.74, 0 143.74 M193.02 143.74 C136.77 143.74, 80.52 143.74, 0 143.74 M0 143.74 C0 108.71, 0 73.68, 0 0 M0 143.74 C0 102.64, 0 61.55, 0 0" stroke="#1e1e1e" stroke-width="4" fill="none"></path></g><g stroke-linecap="round" transform="translate(814.3929088277858 30.123076923076923) rotate(0 96.51230101302458 71.86813186813185)"><path d="M0 0 L193.02 0 L193.02 143.74 L0 143.74" stroke="none" stroke-width="0" fill="#5c5c5c"></path><path d="M0 0 C73.96 0, 147.93 0, 193.02 0 M0 0 C72.05 0, 144.1 0, 193.02 0 M193.02 0 C193.02 49.8, 193.02 99.59, 193.02 143.74 M193.02 0 C193.02 37.02, 193.02 74.04, 193.02 143.74 M193.02 143.74 C122.17 143.74, 51.32 143.74, 0 143.74 M193.02 143.74 C143.95 143.74, 94.87 143.74, 0 143.74 M0 143.74 C0 95.48, 0 47.22, 0 0 M0 143.74 C0 89.44, 0 35.14, 0 0" stroke="#1e1e1e" stroke-width="4" fill="none"></path></g><g stroke-linecap="round" transform="translate(623.2243125904486 31.560439560439562) rotate(0 96.5123010130246 71.86813186813185)"><path d="M0 0 L193.02 0 L193.02 143.74 L0 143.74" stroke="none" stroke-width="0" fill="#787878"></path><path d="M0 0 C43.78 0, 87.57 0, 193.02 0 M0 0 C49.54 0, 99.09 0, 193.02 0 M193.02 0 C193.02 56.44, 193.02 112.89, 193.02 143.74 M193.02 0 C193.02 47.85, 193.02 95.7, 193.02 143.74 M193.02 143.74 C148.11 143.74, 103.2 143.74, 0 143.74 M193.02 143.74 C135.24 143.74, 77.46 143.74, 0 143.74 M0 143.74 C0 95.45, 0 47.17, 0 0 M0 143.74 C0 101.06, 0 58.38, 0 0" stroke="#1e1e1e" stroke-width="4" fill="none"></path></g></svg>